<svg width="145" height="119" viewBox="0 0 145 119" fill="none" xmlns="http://www.w3.org/2000/svg">
<path d="M30.5945 85.4608C30.6574 85.7588 30.6894 86.0608 30.6914 86.3648C30.6914 88.2288 29.5356 89.1608 27.225 89.1608C26.4674 89.1558 25.7243 88.9517 25.0703 88.5688C24.4004 88.1944 23.7897 87.7226 23.2581 87.1688C22.6156 86.4483 22.0454 85.6662 21.5559 84.8338C20.9316 83.8088 20.4321 82.9378 20.0635 82.1958C19.6959 81.4538 19.1984 80.4228 18.572 79.0908L18.1485 79.3188L17.0496 79.7358C16.9954 81.093 16.9298 82.4497 16.8528 83.8058C16.8054 84.7448 16.7514 85.6835 16.691 86.6218C16.6061 88.4218 15.9917 89.3218 14.8469 89.3218C14.282 89.3485 13.7209 89.2158 13.2276 88.9388C13.1607 88.7248 13.0847 86.1668 12.9978 81.2658C12.9109 76.3638 12.868 72.3358 12.868 69.1828C12.8217 68.2631 13.0902 67.3551 13.6292 66.6088C13.8959 66.283 14.2364 66.0255 14.6225 65.8577C15.0085 65.6898 15.4289 65.6165 15.8489 65.6438C16.3344 65.6498 16.8089 65.7838 17.2254 66.0298C17.2784 66.3538 17.3003 66.6818 17.2914 67.0098C17.2914 67.4498 17.2814 68.1848 17.2604 69.2138C17.2404 70.2428 17.2284 71.2188 17.2254 72.1438V72.9478C17.2254 73.8278 17.2045 75.1038 17.1605 76.7738C18.2113 76.1542 19.199 75.4331 20.1094 74.6208C21.2134 73.6037 22.1724 72.4395 22.9595 71.1608C23.8422 69.8332 24.4069 68.3196 24.6097 66.7378C25.317 66.3578 26.1082 66.1578 26.9123 66.1568C27.1876 66.1365 27.4641 66.1747 27.7235 66.269C27.983 66.3633 28.2196 66.5115 28.4178 66.7038C28.8048 67.2206 28.9841 67.864 28.9202 68.5068C28.8478 70.0628 28.2396 71.5457 27.199 72.7038C25.5431 74.556 23.6069 76.1362 21.461 77.3868C22.2754 78.9346 23.2526 80.3908 24.376 81.7308C25.9428 83.6713 28.1462 84.993 30.5945 85.4608ZM49.9973 78.0028C50.0622 78.0573 50.1137 78.1261 50.1477 78.2038C50.1816 78.2815 50.1972 78.3661 50.1931 78.4508C50.192 78.5287 50.1755 78.6057 50.1446 78.6772C50.1138 78.7488 50.0691 78.8135 50.0133 78.8678C49.9007 78.9949 49.7453 79.0761 49.5767 79.0958C49.5358 79.1198 49.1871 79.1818 48.5438 79.2908C48.8735 81.5068 49.0473 83.7428 49.0633 85.9828C49.0633 86.4768 49.0533 86.8568 49.0333 87.1228C48.9976 87.4686 48.9375 87.8115 48.8535 88.1488C48.8077 88.5034 48.6248 88.8258 48.344 89.0468C48.0633 89.2688 47.7047 89.3728 47.3481 89.3368C46.873 89.3238 46.4007 89.2594 45.9395 89.1448C45.4924 89.0745 45.0723 88.8856 44.7228 88.5978C44.9385 87.2007 45.0785 85.793 45.1423 84.3808C45.1423 82.6418 45.1004 81.0868 45.0145 79.7148C44.3262 79.8008 43.3262 79.9148 42.0176 80.0568L39.4772 80.3268C38.9778 83.7468 38.6981 85.6348 38.6331 85.9918C38.1736 88.6518 37.1477 89.9818 35.5553 89.9818C35.0536 90.0392 34.5467 89.9322 34.1108 89.6768C33.6768 89.4228 33.3375 89.0337 33.1448 88.5688C33.8761 86.3808 34.2926 85.0598 34.3746 84.6118C34.6543 83.1298 34.881 81.8758 35.0638 80.8128L34.1878 80.8778C33.6064 80.8778 33.3127 80.5358 33.3127 79.8518C33.3207 79.6898 33.3426 79.5288 33.3776 79.3698L35.3555 78.9868C35.8576 75.5485 36.8175 72.193 38.2096 69.0098C38.6497 67.8649 39.3288 66.8271 40.2015 65.9658C40.8611 65.4209 41.694 65.1307 42.549 65.1478C42.9613 65.1412 43.3706 65.2186 43.7521 65.3754C44.1335 65.5322 44.4791 65.7651 44.7677 66.0598C45.6362 67.1474 46.2607 68.4093 46.5988 69.7598C47.3582 72.3025 47.9213 74.8998 48.2831 77.5288C48.8905 77.4988 49.4914 77.665 49.9973 78.0028ZM39.7969 78.1948C41.4849 77.9414 43.1799 77.7366 44.8796 77.5808C44.822 76.9147 44.7454 76.2505 44.6499 75.5888C43.9606 70.5688 43.3452 68.0588 42.8018 68.0588C42.2593 68.0588 41.7299 68.8738 41.2134 70.5028C40.6024 73.0389 40.1275 75.6059 39.7909 78.1928L39.7969 78.1948ZM61.0098 66.0948C62.772 66.0778 64.5262 66.3498 66.1994 66.8998C67.7496 67.411 69.1357 68.3264 70.2152 69.5518C71.2993 70.7752 71.8829 72.3628 71.8495 73.9978C71.8418 74.6258 71.7443 75.2495 71.5598 75.8498C71.3139 76.6053 70.9585 77.3206 70.5049 77.9728C69.9814 78.7536 69.337 79.4459 68.5959 80.0238C67.6687 80.7038 66.6273 81.2122 65.5211 81.5248C64.1172 81.9389 62.6592 82.1402 61.1956 82.1218C60.7861 82.1218 60.3195 82.1018 59.8001 82.0568C59.5703 86.1638 59.1717 88.8668 58.6043 90.1658C58.0712 90.3976 57.4998 90.5284 56.9191 90.5518C56.0999 90.5518 55.6564 90.0898 55.5895 89.1658V85.7558C55.5895 83.8678 55.5835 82.1578 55.5725 80.6268C55.5725 76.2298 55.4426 72.6468 55.1829 69.8788C54.3228 70.1788 53.5106 70.6008 52.7734 71.1328C52.4288 71.4128 52.0841 71.7358 51.7045 72.0988C50.7016 73.2458 50.6396 71.6028 50.8014 70.9788C50.9188 70.483 51.1636 70.0266 51.5117 69.6548C52.4907 68.7108 53.6295 67.9478 54.8782 67.4028C54.8552 67.2128 54.8283 67.0228 54.7993 66.8328L54.6854 66.1708C54.6474 65.9788 54.6155 65.7858 54.5885 65.5918C55.3503 64.9727 56.2949 64.6226 57.2757 64.5958C57.5304 64.5948 57.7822 64.6368 58.0209 64.7228C58.2927 64.8968 58.5272 65.1232 58.7107 65.3888C58.8942 65.6544 59.0231 65.9539 59.0898 66.2698C59.7256 66.1721 60.3668 66.1137 61.0098 66.0948ZM60.4274 79.8308C62.0882 79.9218 63.7266 79.4141 65.0456 78.3998C65.627 77.8795 66.0824 77.2335 66.3772 76.5108C66.6719 75.7898 66.7968 75.0108 66.7449 74.2348C66.7974 73.4852 66.6919 72.7329 66.4352 72.0268C66.1775 71.3191 65.7746 70.6732 65.2524 70.1308C64.0543 69.1146 62.5074 68.6066 60.9409 68.7148C60.6822 68.7148 60.2306 68.7348 59.5823 68.7788C59.883 71.3918 60.0139 74.0218 59.9719 76.6508C59.9719 77.1878 59.9479 78.2468 59.907 79.8348L60.4274 79.8308ZM89.3183 78.0028C89.3839 78.0569 89.4358 78.1255 89.47 78.2034C89.5042 78.2812 89.5196 78.3659 89.5151 78.4508C89.5111 78.6076 89.4471 78.7569 89.3363 78.8678C89.2233 78.9949 89.0676 79.0761 88.8988 79.0958C88.8568 79.1198 88.5092 79.1818 87.8658 79.2908C88.1935 81.5068 88.3673 83.7438 88.3853 85.9828C88.3953 86.3628 88.3833 86.7438 88.3513 87.1228C88.3188 87.4688 88.26 87.8118 88.1755 88.1488C88.1096 88.4988 87.9268 88.8168 87.6561 89.0488C87.369 89.2529 87.0217 89.3543 86.6701 89.3368C86.1947 89.3239 85.7221 89.2595 85.2606 89.1448C84.8134 89.0742 84.3933 88.8849 84.0438 88.5968C84.2596 87.1998 84.4005 85.7918 84.4644 84.3798C84.4644 82.6408 84.4214 81.0858 84.3365 79.7138C83.6482 79.8008 82.6493 79.9138 81.3386 80.0558L78.7963 80.3258C78.2988 83.7458 78.0191 85.6338 77.9542 85.9908C77.4957 88.6508 76.4697 89.9808 74.8774 89.9808C74.3756 90.0382 73.8688 89.9312 73.4329 89.6758C72.9989 89.4217 72.6597 89.0326 72.4669 88.5678C73.1991 86.3808 73.6107 85.0618 73.7006 84.6108C73.9793 83.1288 74.2061 81.8748 74.3889 80.8108L73.5138 80.8768C72.9314 80.8768 72.6377 80.5348 72.6377 79.8508C72.6457 79.6888 72.6677 79.5268 72.7026 79.3688L74.6816 78.9858C75.1847 75.5474 76.1456 72.1919 77.5386 69.0088C77.9789 67.8642 78.658 66.8268 79.5305 65.9658C80.1898 65.421 81.0223 65.1308 81.8771 65.1478C82.2897 65.14 82.6995 65.2169 83.0813 65.3737C83.463 65.5306 83.8086 65.7641 84.0968 66.0598C84.9648 67.1474 85.5886 68.4093 85.9259 69.7598C86.6859 72.3024 87.2493 74.8997 87.6111 77.5288C88.2163 77.4993 88.8148 77.6655 89.3183 78.0028ZM79.115 78.1948C80.8041 77.9401 82.5004 77.7353 84.2017 77.5808C84.144 76.9148 84.0674 76.2505 83.9719 75.5888C83.2836 70.5688 82.6683 68.0588 82.1278 68.0588C81.5864 68.0588 81.0569 68.8738 80.5395 70.5028C79.9253 73.0384 79.4491 75.6055 79.113 78.1928L79.115 78.1948ZM109.895 72.8578V73.6628C109.895 81.8978 109.873 86.5628 109.829 87.6588C109.763 89.2428 109.125 90.0358 107.916 90.0378C107.171 90.0982 106.424 89.9653 105.745 89.6518C105.66 89.2888 105.574 85.8148 105.486 79.2288C103.967 79.3496 102.444 79.4133 100.92 79.4198C99.3139 79.4198 98.1901 79.4098 97.5498 79.3898C97.5498 82.7568 97.5068 85.5138 97.4219 87.6588C97.4198 88.2906 97.2146 88.9049 96.8365 89.4108C96.6588 89.6213 96.4346 89.7875 96.1816 89.8961C95.9286 90.0048 95.6538 90.053 95.379 90.0368C94.698 90.0869 94.016 89.9532 93.4041 89.6498C93.3401 89.4378 93.2632 86.7998 93.1743 81.7358C93.0864 76.6718 93.0434 72.5528 93.0474 69.3798C92.9999 68.4472 93.2997 67.53 93.8886 66.8058C94.1752 66.4839 94.5301 66.2301 94.9272 66.0631C95.3244 65.8962 95.7539 65.8202 96.1842 65.8408C96.6747 65.8458 97.1562 65.9788 97.5797 66.2268C97.6307 66.5958 97.6516 66.9668 97.6417 67.3398C97.6417 67.8628 97.6307 68.6828 97.6107 69.7998C97.5907 70.8198 97.5807 71.8388 97.5797 72.8578V76.6838C97.9444 76.7078 98.5617 76.7188 99.4238 76.7188C102.319 76.7188 104.328 76.7068 105.452 76.6838C105.418 74.0679 105.396 71.4519 105.386 68.8358C105.339 67.9048 105.643 66.9902 106.238 66.2728C106.54 65.947 106.909 65.6916 107.321 65.5247C107.732 65.3577 108.175 65.2834 108.618 65.3068C109.055 65.3268 109.479 65.4588 109.849 65.6898C109.906 66.0898 109.934 66.4938 109.932 66.8988C109.932 67.4878 109.926 68.4208 109.914 69.6988C109.895 70.9598 109.895 72.0138 109.895 72.8578ZM124.362 74.5558C125.493 74.4842 126.628 74.6441 127.695 75.0258C128.761 75.4066 129.738 76.0014 130.565 76.7738C131.266 77.4664 131.819 78.2937 132.192 79.2059C132.565 80.118 132.75 81.0963 132.736 82.0818C132.748 83.1365 132.545 84.1826 132.139 85.1558C131.732 86.1307 131.131 87.0126 130.373 87.7478C129.477 88.5816 128.421 89.2237 127.269 89.6348C126.114 90.0466 124.889 90.2191 123.666 90.1418C123.111 90.1368 122.558 90.0886 122.011 89.9978C121.372 89.8895 120.758 89.6655 120.199 89.3368C119.944 89.2269 119.723 89.0483 119.563 88.8208C119.403 88.594 119.309 88.327 119.293 88.0498C119.293 87.4058 120.096 85.2498 120.689 85.4488C120.029 87.2348 122.498 87.6668 123.6 87.6668C124.272 87.6466 124.931 87.4786 125.532 87.1748C126.13 86.8716 126.655 86.4396 127.067 85.9098C128.081 84.7995 128.637 83.3453 128.621 81.8408C128.629 81.1843 128.485 80.5348 128.202 79.9428C127.918 79.3489 127.501 78.8282 126.984 78.4208C125.967 77.5325 124.661 77.0465 123.312 77.0538C121.472 76.9918 119.649 77.4248 118.032 78.3078C118.078 81.0788 117.964 83.8501 117.689 86.6078C117.655 87.3531 117.48 88.0852 117.172 88.7648C117.013 88.9694 116.805 89.1299 116.567 89.2311C116.328 89.3323 116.068 89.3707 115.811 89.3428C115.515 89.3434 115.223 89.2701 114.963 89.1296C114.703 88.989 114.481 88.7856 114.319 88.5378C114.319 88.4518 114.319 88.0558 114.353 87.3498C114.388 86.6438 114.395 85.5908 114.415 84.1938C114.436 82.7958 114.45 81.4178 114.45 80.0458C114.45 75.0898 114.296 70.5958 113.991 66.5628C114.439 66.4416 114.904 66.3877 115.368 66.4028C115.69 66.3658 116.016 66.4133 116.315 66.5406C116.613 66.6678 116.873 66.8705 117.069 67.1288C117.442 67.8161 117.648 68.5819 117.669 69.3638C117.862 71.4868 117.969 73.6418 117.992 75.8298C120.022 75.0254 122.179 74.5938 124.362 74.5558ZM0.777562 104.877C0.714687 104.942 0.633531 104.987 0.544749 105.005C0.455967 105.024 0.363707 105.015 0.280081 104.98C0.195969 104.946 0.124155 104.887 0.0741908 104.811C0.0242266 104.736 -0.00152084 104.647 0.000371335 104.556V98.6608C-0.00337526 98.5703 0.0213057 98.481 0.0709422 98.4053C0.120579 98.3296 0.192673 98.2714 0.277084 98.2388C0.332073 98.2171 0.390815 98.2066 0.449904 98.2078H5.07808C5.13827 98.205 5.19838 98.2147 5.25457 98.2365C5.31077 98.2582 5.3618 98.2915 5.4044 98.3341C5.44701 98.3768 5.48024 98.4279 5.50197 98.4841C5.52371 98.5404 5.53346 98.6006 5.53061 98.6608V104.556C5.53225 104.615 5.52194 104.674 5.50032 104.729C5.47869 104.784 5.44619 104.835 5.40474 104.877C5.3416 104.942 5.2604 104.986 5.17168 105.004C5.08297 105.023 4.99084 105.014 4.90726 104.979C4.82379 104.944 4.75244 104.885 4.70215 104.81C4.65186 104.735 4.62487 104.646 4.62455 104.556V99.0088H0.890445V104.555C0.893997 104.613 0.885841 104.672 0.866456 104.727C0.847072 104.783 0.816849 104.833 0.777562 104.877ZM12.7761 98.2548C12.835 98.2232 12.9009 98.2067 12.9679 98.2068C13.0279 98.2041 13.0878 98.214 13.1438 98.2358C13.1998 98.2576 13.2505 98.291 13.2929 98.3336C13.3352 98.3763 13.3682 98.4273 13.3896 98.4835C13.4111 98.5397 13.4205 98.5998 13.4174 98.6598V104.555C13.419 104.614 13.4085 104.674 13.3866 104.729C13.3646 104.785 13.3316 104.835 13.2896 104.878C13.2475 104.92 13.1973 104.953 13.142 104.976C13.0867 104.998 13.0275 105.009 12.9679 105.008C12.9078 105.009 12.848 104.998 12.7924 104.975C12.7367 104.953 12.6863 104.919 12.6442 104.876C12.602 104.834 12.5688 104.784 12.5466 104.729C12.5244 104.673 12.5138 104.614 12.5153 104.555V99.6278L8.35767 104.853C8.31341 104.901 8.25921 104.939 8.19883 104.964C8.14253 104.99 8.0815 105.005 8.01932 105.008C7.95714 105.011 7.89506 105.001 7.83672 104.979C7.77838 104.957 7.72496 104.924 7.67959 104.882C7.63421 104.839 7.5978 104.788 7.57248 104.731C7.54924 104.675 7.53801 104.616 7.53952 104.556V98.6608C7.53808 98.6008 7.54935 98.5412 7.5726 98.4858C7.59584 98.4305 7.63053 98.3807 7.67438 98.3398C7.73884 98.2766 7.82027 98.2334 7.90878 98.2157C7.99728 98.1979 8.08903 98.2063 8.17286 98.2398C8.22641 98.2622 8.27469 98.2956 8.3146 98.3378C8.35451 98.38 8.38517 98.4301 8.40462 98.4848C8.4246 98.5408 8.43459 98.6008 8.43259 98.6608V103.589L12.6082 98.3638C12.6563 98.3165 12.7134 98.2794 12.7761 98.2548ZM19.9915 98.3278C20.0685 98.4087 20.1114 98.5161 20.1114 98.6278C20.1114 98.7395 20.0685 98.8469 19.9915 98.9278C19.9524 98.967 19.9056 98.9977 19.854 99.0178C19.8024 99.038 19.7472 99.0472 19.6919 99.0448H17.8198V104.558C17.8205 104.617 17.8092 104.677 17.7867 104.732C17.7642 104.787 17.7309 104.837 17.6888 104.88C17.6466 104.922 17.5964 104.955 17.5412 104.978C17.486 105 17.4269 105.011 17.3673 105.011C17.3077 105.011 17.2487 105 17.1936 104.977C17.1386 104.955 17.0885 104.921 17.0464 104.879C17.0043 104.837 16.971 104.787 16.9484 104.732C16.9258 104.676 16.9144 104.617 16.9148 104.558V99.0448H15.0367C14.9814 99.0472 14.9261 99.0381 14.8745 99.018C14.8229 98.9979 14.776 98.9672 14.7368 98.928C14.6976 98.8888 14.667 98.8419 14.6469 98.7902C14.6269 98.7385 14.6177 98.6832 14.6201 98.6278C14.6177 98.5724 14.6269 98.5171 14.6469 98.4654C14.667 98.4137 14.6976 98.3668 14.7368 98.3276C14.776 98.2884 14.8229 98.2577 14.8745 98.2376C14.9261 98.2175 14.9814 98.2084 15.0367 98.2108H19.6849C19.7413 98.2078 19.7978 98.2166 19.8506 98.2368C19.9034 98.2569 19.9514 98.2879 19.9915 98.3278ZM25.8624 98.5648C26.3789 98.8538 26.8045 99.2828 27.0892 99.8018C27.3753 100.359 27.5245 100.976 27.5245 101.602C27.5245 102.228 27.3753 102.845 27.0892 103.402C26.8055 103.922 26.3809 104.352 25.8654 104.642C25.3113 104.935 24.694 105.088 24.0673 105.088C23.4406 105.088 22.8233 104.935 22.2692 104.642C21.7521 104.354 21.3284 103.924 21.0484 103.402C20.764 102.845 20.6157 102.228 20.6157 101.602C20.6157 100.976 20.764 100.359 21.0484 99.8018C21.3283 99.2818 21.7508 98.8526 22.2662 98.5648C22.82 98.2708 23.4374 98.1171 24.0643 98.1171C24.6912 98.1171 25.3086 98.2708 25.8624 98.5648ZM22.7397 99.2888C22.3498 99.5154 22.0316 99.8474 21.8216 100.247C21.6074 100.664 21.4956 101.127 21.4956 101.597C21.4956 102.066 21.6074 102.529 21.8216 102.947C22.0334 103.347 22.3531 103.681 22.7427 103.911C23.1487 104.142 23.6078 104.263 24.0748 104.263C24.5418 104.263 25.0009 104.142 25.4069 103.911C25.7965 103.681 26.1162 103.347 26.3279 102.947C26.5422 102.529 26.654 102.066 26.654 101.597C26.654 101.127 26.5422 100.664 26.3279 100.247C26.118 99.8474 25.7998 99.5154 25.4099 99.2888C25.0022 99.0608 24.5429 98.941 24.0758 98.941C23.6087 98.941 23.1494 99.0608 22.7417 99.2888H22.7397ZM35.875 98.3398C35.9179 98.3813 35.9518 98.4313 35.9745 98.4865C35.9972 98.5417 36.0082 98.6011 36.0069 98.6608V104.556C36.0084 104.616 35.9971 104.675 35.9739 104.731C35.9506 104.786 35.9159 104.836 35.872 104.877C35.8088 104.94 35.7282 104.983 35.6404 105.001C35.5526 105.018 35.4616 105.009 35.379 104.975C35.2963 104.941 35.2258 104.882 35.1762 104.808C35.1267 104.733 35.1005 104.645 35.1008 104.556V100.228L33.003 104.522C32.9631 104.59 32.9062 104.646 32.8379 104.686C32.7696 104.725 32.6922 104.746 32.6134 104.747C32.5261 104.751 32.4397 104.728 32.3653 104.682C32.291 104.636 32.2323 104.569 32.1968 104.489L30.099 100.306V104.555C30.1007 104.614 30.0901 104.674 30.0679 104.729C30.0457 104.784 30.0125 104.834 29.9702 104.876C29.9168 104.928 29.8516 104.966 29.7801 104.988C29.7086 105.009 29.6331 105.013 29.5599 104.998C29.4867 104.984 29.4182 104.952 29.3602 104.905C29.3022 104.858 29.2564 104.797 29.2269 104.729C29.2048 104.674 29.1942 104.614 29.196 104.555V98.6598C29.1942 98.6003 29.2047 98.5411 29.2269 98.4858C29.2491 98.4306 29.2824 98.3805 29.3248 98.3388C29.3753 98.2885 29.4368 98.2508 29.5045 98.2287C29.5722 98.2065 29.6441 98.2006 29.7145 98.2114C29.7848 98.2223 29.8517 98.2494 29.9096 98.2908C29.9676 98.3323 30.015 98.3867 30.0481 98.4498L32.6304 103.633L35.1438 98.4498C35.1768 98.3867 35.2243 98.3323 35.2822 98.2908C35.3402 98.2494 35.407 98.2223 35.4774 98.2114C35.5478 98.2006 35.6197 98.2065 35.6873 98.2287C35.755 98.2508 35.8166 98.2885 35.867 98.3388L35.875 98.3398ZM43.0725 98.3288C43.1153 98.2872 43.166 98.2546 43.2216 98.2329C43.2772 98.2113 43.3365 98.2011 43.3962 98.2028C43.485 98.2001 43.5724 98.2252 43.6462 98.2747C43.72 98.3242 43.7765 98.3956 43.8077 98.4788C43.8294 98.5352 43.8392 98.5954 43.8367 98.6558V104.551C43.8389 104.611 43.8289 104.671 43.8073 104.727C43.7856 104.783 43.7528 104.835 43.7108 104.878C43.6696 104.919 43.6205 104.951 43.5664 104.973C43.5123 104.995 43.4544 105.005 43.3962 105.004C43.3361 105.005 43.2763 104.994 43.2207 104.971C43.165 104.949 43.1146 104.915 43.0725 104.872C43.0303 104.83 42.9971 104.78 42.975 104.725C42.9528 104.669 42.9422 104.61 42.9436 104.551V101.957H38.9058V104.551C38.9075 104.61 38.8972 104.669 38.8755 104.724C38.8539 104.779 38.8214 104.83 38.78 104.872C38.7171 104.937 38.6359 104.982 38.5472 105C38.4584 105.019 38.3661 105.01 38.2825 104.975C38.1984 104.941 38.1266 104.882 38.0766 104.806C38.0266 104.731 38.0009 104.642 38.0028 104.551V98.6558C37.999 98.5653 38.0237 98.476 38.0734 98.4003C38.123 98.3246 38.1951 98.2664 38.2795 98.2338C38.3345 98.2121 38.3932 98.2015 38.4523 98.2028C38.5125 98.2 38.5726 98.2097 38.6288 98.2315C38.685 98.2532 38.736 98.2865 38.7786 98.3291C38.8212 98.3718 38.8545 98.4229 38.8762 98.4791C38.8979 98.5354 38.9077 98.5956 38.9048 98.6558V101.156H42.9426V98.6558C42.9401 98.5953 42.9502 98.535 42.9724 98.4786C42.9946 98.4223 43.0294 98.3713 43.0725 98.3288ZM51.0662 98.2548C51.1253 98.2235 51.1911 98.2071 51.258 98.2068C51.3181 98.2048 51.378 98.2149 51.4341 98.2365C51.4902 98.2582 51.5414 98.2909 51.5846 98.3328C51.6268 98.3758 51.6597 98.4271 51.6813 98.4833C51.703 98.5395 51.7129 98.5996 51.7105 98.6598V104.555C51.7125 104.615 51.702 104.675 51.6798 104.73C51.6577 104.786 51.6242 104.837 51.5816 104.879C51.5392 104.921 51.4886 104.954 51.433 104.976C51.3773 104.999 51.3178 105.009 51.258 105.008C51.1984 105.008 51.1394 104.997 51.0843 104.974C51.0293 104.952 50.9792 104.918 50.9371 104.876C50.895 104.834 50.8617 104.784 50.8391 104.729C50.8165 104.674 50.805 104.614 50.8055 104.555V99.6278L46.6478 104.853C46.5606 104.947 46.4396 105.003 46.3111 105.009C46.2172 105.012 46.1244 104.987 46.0444 104.938C45.9645 104.888 45.9009 104.816 45.8616 104.731C45.8384 104.675 45.8272 104.616 45.8286 104.556V98.6608C45.8272 98.6008 45.8385 98.5412 45.8617 98.4858C45.885 98.4305 45.9196 98.3807 45.9635 98.3398C46.0278 98.2763 46.1093 98.2331 46.1978 98.2153C46.2864 98.1975 46.3782 98.206 46.462 98.2398C46.5153 98.2623 46.5634 98.2958 46.6032 98.338C46.6429 98.3801 46.6734 98.4302 46.6927 98.4848C46.714 98.541 46.7239 98.6008 46.7217 98.6608V103.589L50.8974 98.3638C50.9459 98.3175 51.0029 98.2808 51.0652 98.2558L51.0662 98.2548ZM58.8521 104.61C58.8524 104.666 58.8408 104.722 58.8181 104.774C58.7953 104.826 58.762 104.872 58.7202 104.91C58.6404 104.989 58.5327 105.033 58.4205 105.033C58.352 105.033 58.2841 105.02 58.2207 104.994C58.1623 104.97 58.1101 104.933 58.0679 104.886L55.5485 101.961H54.6185V104.555C54.6202 104.614 54.6099 104.673 54.5883 104.728C54.5666 104.783 54.5341 104.834 54.4926 104.876C54.4297 104.941 54.3486 104.986 54.2598 105.004C54.171 105.023 54.0788 105.014 53.9951 104.979C53.911 104.945 53.8392 104.886 53.7892 104.81C53.7393 104.735 53.7135 104.646 53.7154 104.555V98.6598C53.7117 98.5693 53.7364 98.48 53.786 98.4043C53.8356 98.3286 53.9077 98.2704 53.9921 98.2378C54.0471 98.2161 54.1059 98.2055 54.1649 98.2068C54.2251 98.204 54.2852 98.2137 54.3414 98.2355C54.3976 98.2572 54.4487 98.2905 54.4913 98.3331C54.5339 98.3758 54.5671 98.4269 54.5888 98.4831C54.6106 98.5394 54.6203 98.5996 54.6175 98.6598V101.16H55.5165L57.8561 98.3598C57.8944 98.3113 57.9431 98.2721 57.9986 98.245C58.0541 98.218 58.115 98.2039 58.1768 98.2038C58.2879 98.2045 58.3943 98.2484 58.4737 98.3262C58.5531 98.404 58.5992 98.5096 58.6023 98.6208C58.5984 98.7317 58.5561 98.8378 58.4824 98.9208L56.2718 101.491L58.6982 104.314C58.7862 104.389 58.8414 104.495 58.8521 104.61ZM69.3961 104.333C69.4384 104.376 69.4714 104.427 69.493 104.483C69.5147 104.539 69.5245 104.6 69.522 104.66V106.104C69.5242 106.164 69.5142 106.224 69.4925 106.28C69.4709 106.336 69.4381 106.388 69.3961 106.431C69.3076 106.512 69.192 106.557 69.0719 106.557C68.9519 106.557 68.8362 106.512 68.7478 106.431C68.7038 106.389 68.6694 106.338 68.6466 106.282C68.6239 106.225 68.6134 106.165 68.6159 106.104V105.004H63.3963V106.104C63.3992 106.164 63.3894 106.224 63.3677 106.28C63.346 106.337 63.3127 106.388 63.2701 106.43C63.2275 106.473 63.1765 106.506 63.1203 106.528C63.0641 106.55 63.004 106.56 62.9438 106.557C62.8841 106.558 62.8248 106.547 62.7695 106.524C62.7142 106.502 62.6639 106.468 62.6217 106.426C62.5795 106.384 62.5462 106.334 62.5238 106.278C62.5014 106.223 62.4903 106.164 62.4913 106.104V104.66C62.4882 104.569 62.5135 104.48 62.5636 104.404C62.6138 104.328 62.6863 104.27 62.771 104.238C62.826 104.216 62.8847 104.206 62.9438 104.207H63.2045L65.5891 98.5018C65.619 98.413 65.6763 98.3361 65.7528 98.2822C65.8294 98.2282 65.921 98.2001 66.0146 98.2018C66.1089 98.1966 66.2022 98.2233 66.2795 98.2778C66.3567 98.3322 66.4133 98.4111 66.4402 98.5018L68.8247 104.207H69.0674C69.1278 104.205 69.188 104.215 69.2444 104.237C69.3009 104.258 69.3524 104.291 69.3961 104.333ZM64.1286 104.207H67.9566L66.0366 99.5138L64.1286 104.207ZM75.5727 104.286C75.6134 104.324 75.6455 104.371 75.6667 104.422C75.6879 104.474 75.6977 104.53 75.6955 104.586C75.6962 104.642 75.6856 104.697 75.6645 104.748C75.6434 104.8 75.6122 104.847 75.5727 104.886C75.5297 104.926 75.4792 104.957 75.4241 104.977C75.3691 104.997 75.3105 105.006 75.252 105.003H71.3191C71.2595 105.003 71.2005 104.992 71.1454 104.969C71.0904 104.947 71.0403 104.913 70.9982 104.871C70.9561 104.829 70.9228 104.779 70.9002 104.724C70.8776 104.668 70.8662 104.609 70.8666 104.55V98.6618C70.8631 98.5709 70.8883 98.4811 70.9384 98.4053C70.9886 98.3294 71.0613 98.2712 71.1463 98.2388C71.2013 98.2173 71.26 98.2071 71.3191 98.2088H75.252C75.3701 98.2038 75.4855 98.2458 75.5727 98.3258C75.6122 98.365 75.6435 98.4117 75.6646 98.4633C75.6858 98.5148 75.6963 98.5701 75.6955 98.6258C75.698 98.6817 75.6883 98.7375 75.6671 98.7894C75.6459 98.8412 75.6136 98.8877 75.5727 98.9258C75.484 99.0028 75.3692 99.0425 75.252 99.0368H71.7726V101.137H74.27C74.3871 101.133 74.5011 101.175 74.5877 101.254C74.6474 101.313 74.6881 101.389 74.7047 101.471C74.7212 101.554 74.7128 101.639 74.6806 101.717C74.6581 101.769 74.6253 101.816 74.5841 101.856C74.5429 101.895 74.4941 101.926 74.4408 101.946C74.3862 101.966 74.3282 101.976 74.27 101.974H71.7726V104.187H75.252C75.3676 104.178 75.4823 104.213 75.5727 104.286ZM82.3416 104.61C82.3417 104.666 82.33 104.722 82.3073 104.774C82.2846 104.825 82.2514 104.872 82.2097 104.91C82.13 104.989 82.0223 105.033 81.9101 105.033C81.8416 105.033 81.7737 105.02 81.7103 104.994C81.6522 104.969 81.6001 104.932 81.5574 104.886L79.06 101.976H78.127V104.57C78.1286 104.629 78.1181 104.689 78.0962 104.744C78.0742 104.8 78.0412 104.85 77.9992 104.893C77.9571 104.935 77.9069 104.968 77.8516 104.991C77.7963 105.013 77.7371 105.024 77.6775 105.023C77.6174 105.024 77.5576 105.013 77.502 104.99C77.4463 104.968 77.3959 104.934 77.3538 104.891C77.3116 104.849 77.2784 104.799 77.2563 104.744C77.2341 104.688 77.2235 104.629 77.2249 104.57V98.6598C77.221 98.5691 77.2458 98.4794 77.2956 98.4035C77.3455 98.3275 77.4179 98.2692 77.5026 98.2368C77.5583 98.2152 77.6178 98.205 77.6775 98.2068C77.7375 98.2039 77.7975 98.2137 77.8536 98.2355C77.9096 98.2572 77.9605 98.2906 78.0028 98.3333C78.0452 98.376 78.0781 98.4271 78.0995 98.4833C78.1209 98.5396 78.1303 98.5997 78.127 98.6598V101.16H79.0261L81.3656 98.3598C81.4044 98.3112 81.4537 98.2719 81.5097 98.2449C81.5657 98.2179 81.6271 98.2038 81.6893 98.2038C81.7998 98.2065 81.9051 98.251 81.9841 98.3284C82.0631 98.4058 82.1098 98.5103 82.1148 98.6208C82.1096 98.732 82.0662 98.8379 81.992 98.9208L79.7753 101.491L82.2018 104.314C82.2847 104.391 82.3348 104.497 82.3416 104.61ZM88.4133 98.5648C88.9298 98.853 89.3542 99.2819 89.637 99.8018C89.9258 100.358 90.0765 100.975 90.0765 101.602C90.0765 102.228 89.9258 102.846 89.637 103.402C89.355 103.922 88.9318 104.352 88.4163 104.642C87.862 104.935 87.2448 105.088 86.6181 105.088C85.9915 105.088 85.3743 104.935 84.82 104.642C84.3028 104.353 83.8783 103.923 83.5963 103.402C83.3114 102.845 83.1629 102.228 83.1629 101.602C83.1629 100.976 83.3114 100.359 83.5963 99.8018C83.8791 99.2819 84.3035 98.853 84.82 98.5648C85.3724 98.2731 85.9876 98.1206 86.6122 98.1206C87.2367 98.1206 87.8519 98.2731 88.4043 98.5648H88.4133ZM85.2875 99.2888C84.8999 99.5168 84.5823 99.8488 84.3725 100.247C84.1566 100.664 84.0439 101.127 84.0439 101.597C84.0439 102.067 84.1566 102.53 84.3725 102.947C84.5843 103.348 84.9029 103.682 85.2935 103.911C85.6993 104.141 86.1578 104.262 86.6241 104.262C87.0905 104.262 87.5489 104.141 87.9548 103.911C88.3454 103.681 88.6651 103.347 88.8788 102.947C89.0936 102.529 89.2057 102.066 89.2057 101.597C89.2057 101.127 89.0936 100.664 88.8788 100.247C88.6668 99.8489 88.3491 99.5174 87.9607 99.2888C87.5522 99.0603 87.0921 98.9403 86.6241 98.9403C86.1562 98.9403 85.696 99.0603 85.2875 99.2888ZM92.532 104.877C92.4847 104.925 92.4272 104.963 92.3636 104.986C92.3001 105.01 92.232 105.019 92.1646 105.012C92.0971 105.006 92.0319 104.985 91.9738 104.95C91.9157 104.915 91.8661 104.867 91.8287 104.811C91.7787 104.735 91.7519 104.647 91.7518 104.556V98.6608C91.7486 98.57 91.7738 98.4805 91.824 98.4049C91.8741 98.3292 91.9467 98.2711 92.0315 98.2388C92.0865 98.2171 92.1452 98.2065 92.2043 98.2078H93.9445C94.3491 98.2048 94.7467 98.3078 95.0993 98.5078C95.433 98.6948 95.7057 98.9718 95.8885 99.3078C96.0873 99.6638 96.1902 100.065 96.1882 100.473C96.1902 100.87 96.0873 101.261 95.8885 101.605C95.7034 101.932 95.4299 102.201 95.0993 102.38C94.7441 102.569 94.3468 102.665 93.9445 102.659H92.6579V104.566C92.6577 104.681 92.6126 104.792 92.532 104.875V104.877ZM94.9295 101.436C95.0568 101.309 95.1565 101.157 95.2225 100.989C95.2885 100.822 95.3194 100.643 95.3131 100.463C95.3195 100.276 95.2889 100.09 95.223 99.9154C95.1572 99.7407 95.0574 99.5807 94.9295 99.4448C94.8044 99.313 94.6528 99.2093 94.4848 99.1403C94.3167 99.0714 94.136 99.0388 93.9545 99.0448H92.6559V101.817H93.9425C94.1221 101.823 94.301 101.792 94.4685 101.727C94.6361 101.662 94.7888 101.564 94.9175 101.439L94.9295 101.436ZM102.296 104.565C102.296 104.621 102.284 104.676 102.262 104.728C102.24 104.78 102.208 104.826 102.167 104.865C102.093 104.939 101.996 104.986 101.892 104.996C101.788 105.007 101.683 104.98 101.597 104.922C101.52 104.875 101.46 104.805 101.426 104.722L100.94 103.503H97.8175L97.318 104.722C97.2808 104.804 97.2204 104.874 97.1442 104.922C97.0586 104.98 96.9553 105.006 96.8525 104.995C96.7498 104.984 96.6542 104.937 96.5828 104.862C96.5009 104.776 96.4557 104.662 96.4569 104.544C96.4597 104.475 96.4749 104.407 96.5018 104.344L98.9463 98.5038C98.9759 98.4149 99.0332 98.3378 99.1098 98.2838C99.1864 98.2298 99.2782 98.2018 99.3719 98.2038C99.466 98.1996 99.5588 98.2268 99.6358 98.2811C99.7128 98.3354 99.7697 98.4137 99.7974 98.5038L102.251 104.363C102.278 104.427 102.293 104.495 102.296 104.565ZM100.634 102.765L99.3918 99.6648L98.1202 102.765H100.634ZM107.485 98.3278C107.53 98.3717 107.564 98.425 107.586 98.4838C107.607 98.5427 107.615 98.6055 107.609 98.6678C107.603 98.7301 107.583 98.7903 107.551 98.8439C107.518 98.8976 107.475 98.9433 107.422 98.9778C107.352 99.0238 107.27 99.0475 107.186 99.0458H105.314V104.559C105.315 104.618 105.305 104.678 105.283 104.733C105.26 104.788 105.227 104.838 105.185 104.88C105.099 104.965 104.983 105.012 104.862 105.012C104.741 105.012 104.625 104.965 104.539 104.88C104.497 104.838 104.464 104.788 104.442 104.733C104.42 104.677 104.409 104.618 104.411 104.559V99.0458H102.534C102.45 99.0497 102.368 99.0271 102.298 98.9813C102.228 98.9356 102.174 98.8689 102.144 98.7908C102.124 98.7392 102.115 98.6841 102.117 98.6288C102.115 98.5735 102.125 98.5184 102.145 98.4668C102.165 98.4153 102.195 98.3683 102.234 98.3288C102.273 98.2893 102.32 98.2585 102.371 98.2383C102.423 98.2182 102.478 98.2091 102.534 98.2118H107.189C107.243 98.21 107.298 98.2193 107.349 98.2393C107.4 98.2592 107.446 98.2893 107.485 98.3278ZM114.098 98.2548C114.157 98.2235 114.222 98.207 114.289 98.2068C114.349 98.2046 114.409 98.2147 114.466 98.2364C114.522 98.258 114.573 98.2908 114.616 98.3328C114.658 98.3761 114.69 98.4274 114.712 98.4835C114.734 98.5397 114.744 98.5996 114.742 98.6598V104.555C114.744 104.615 114.734 104.675 114.711 104.73C114.689 104.786 114.656 104.837 114.613 104.879C114.571 104.921 114.52 104.955 114.465 104.977C114.409 104.999 114.349 105.01 114.289 105.008C114.23 105.008 114.171 104.997 114.116 104.974C114.061 104.952 114.011 104.918 113.968 104.876C113.926 104.834 113.893 104.784 113.87 104.729C113.848 104.674 113.836 104.614 113.837 104.555V99.6278L109.679 104.853C109.614 104.924 109.528 104.974 109.434 104.996C109.34 105.018 109.241 105.012 109.151 104.977C109.037 104.931 108.945 104.843 108.894 104.731C108.871 104.675 108.86 104.616 108.861 104.556V98.6608C108.859 98.5692 108.886 98.4793 108.938 98.4039C108.99 98.3285 109.064 98.2715 109.151 98.2408C109.261 98.1966 109.384 98.1966 109.494 98.2408C109.548 98.2634 109.596 98.2967 109.636 98.3387C109.675 98.3806 109.706 98.4304 109.726 98.4848C109.747 98.5408 109.756 98.6008 109.754 98.6608V103.589L113.957 98.3728C113.997 98.3257 114.044 98.2858 114.098 98.2548ZM120.307 98.4388C120.601 98.5834 120.848 98.8087 121.019 99.0885C121.19 99.3682 121.278 99.6909 121.273 100.019C121.276 100.292 121.196 100.559 121.042 100.785C120.88 101.018 120.663 101.207 120.409 101.334C120.782 101.403 121.116 101.606 121.35 101.905C121.584 102.203 121.702 102.577 121.681 102.956C121.686 103.328 121.588 103.695 121.399 104.016C121.21 104.331 120.935 104.585 120.607 104.749C120.249 104.927 119.854 105.017 119.455 105.01H117.193C117.134 105.011 117.074 105 117.019 104.978C116.963 104.955 116.913 104.922 116.871 104.88C116.828 104.838 116.795 104.787 116.773 104.732C116.75 104.676 116.74 104.617 116.741 104.557V98.6618C116.736 98.571 116.761 98.4811 116.811 98.4051C116.861 98.3291 116.933 98.2709 117.018 98.2388C117.074 98.2172 117.134 98.207 117.193 98.2088H119.272C119.631 98.2028 119.985 98.2808 120.307 98.4388ZM120.094 100.751C120.197 100.66 120.278 100.546 120.33 100.419C120.382 100.292 120.404 100.155 120.394 100.018C120.404 99.8816 120.382 99.745 120.33 99.6188C120.278 99.4926 120.197 99.3803 120.094 99.2908C119.857 99.1152 119.567 99.0273 119.272 99.0418H117.644V101.003H119.272C119.567 101.018 119.859 100.929 120.094 100.751ZM120.436 103.851C120.562 103.739 120.661 103.6 120.726 103.444C120.791 103.288 120.82 103.119 120.811 102.951C120.82 102.793 120.791 102.636 120.727 102.491C120.663 102.347 120.565 102.22 120.442 102.122C120.156 101.913 119.808 101.807 119.455 101.822H117.657V104.185H119.455C119.812 104.198 120.16 104.081 120.437 103.856L120.436 103.851ZM128.358 98.3338C128.444 98.2511 128.559 98.2058 128.678 98.2078C128.738 98.2056 128.797 98.2159 128.853 98.238C128.908 98.2601 128.958 98.2936 129 98.3362C129.042 98.3789 129.074 98.4298 129.095 98.4857C129.116 98.5415 129.125 98.6012 129.122 98.6608V104.556C129.124 104.616 129.114 104.676 129.092 104.732C129.07 104.788 129.038 104.84 128.996 104.883C128.954 104.924 128.905 104.957 128.85 104.979C128.796 105 128.737 105.011 128.678 105.009C128.619 105.009 128.56 104.998 128.505 104.975C128.45 104.953 128.4 104.919 128.357 104.877C128.315 104.835 128.282 104.785 128.259 104.73C128.237 104.674 128.225 104.615 128.226 104.556V101.962H124.191V104.556C124.194 104.646 124.169 104.735 124.119 104.811C124.07 104.887 123.998 104.945 123.913 104.978C123.858 105 123.798 105.01 123.738 105.009C123.679 105.009 123.62 104.998 123.565 104.975C123.51 104.953 123.46 104.919 123.418 104.877C123.376 104.835 123.342 104.785 123.32 104.73C123.297 104.674 123.286 104.615 123.286 104.556V98.6608C123.284 98.6001 123.295 98.5396 123.317 98.4833C123.34 98.427 123.374 98.3761 123.418 98.3338C123.481 98.2679 123.562 98.2226 123.652 98.2041C123.741 98.1856 123.834 98.1947 123.918 98.2302C124.001 98.2656 124.073 98.3258 124.122 98.4027C124.171 98.4796 124.195 98.5696 124.192 98.6608V101.156H128.227V98.6558C128.225 98.596 128.236 98.5366 128.259 98.4812C128.281 98.4258 128.315 98.3756 128.358 98.3338ZM134.596 101.091C134.926 101.254 135.202 101.508 135.392 101.823C135.582 102.138 135.679 102.501 135.67 102.869C135.676 103.254 135.579 103.634 135.388 103.969C135.2 104.292 134.926 104.556 134.596 104.732C134.241 104.917 133.845 105.011 133.444 105.005H131.53C131.471 105.005 131.412 104.994 131.357 104.971C131.302 104.949 131.252 104.915 131.209 104.873C131.167 104.831 131.134 104.781 131.111 104.726C131.089 104.67 131.077 104.611 131.078 104.552V98.6118C131.075 98.5555 131.084 98.4992 131.106 98.4472C131.128 98.3952 131.161 98.3489 131.204 98.3118C131.294 98.2336 131.411 98.1928 131.53 98.1978C131.65 98.1936 131.766 98.2343 131.857 98.3118C131.899 98.3494 131.932 98.3958 131.954 98.4476C131.975 98.4995 131.985 98.5556 131.983 98.6118V100.825H133.443C133.843 100.819 134.239 100.911 134.596 101.091ZM134.428 103.833C134.556 103.709 134.656 103.558 134.72 103.392C134.784 103.225 134.811 103.047 134.8 102.869C134.813 102.694 134.786 102.519 134.723 102.355C134.659 102.192 134.559 102.045 134.431 101.926C134.148 101.712 133.798 101.606 133.444 101.626H131.984V104.19H133.444C133.806 104.201 134.159 104.074 134.428 103.833ZM136.826 98.3328C136.912 98.25 137.027 98.2047 137.147 98.2068C137.206 98.2053 137.265 98.2163 137.319 98.2391C137.374 98.2618 137.423 98.2958 137.464 98.3388C137.505 98.3812 137.538 98.4315 137.559 98.4866C137.581 98.5417 137.591 98.6006 137.59 98.6598V104.555C137.592 104.644 137.568 104.732 137.519 104.807C137.471 104.882 137.401 104.941 137.319 104.976C137.264 104.998 137.206 105.009 137.147 105.008C137.087 105.009 137.028 104.998 136.972 104.976C136.917 104.953 136.867 104.919 136.826 104.876C136.784 104.834 136.751 104.784 136.729 104.729C136.706 104.673 136.696 104.614 136.697 104.555V98.6598C136.693 98.6 136.702 98.54 136.723 98.4838C136.743 98.4273 136.775 98.3758 136.817 98.3328H136.826ZM144.438 104.276C144.503 104.362 144.538 104.468 144.538 104.576C144.539 104.686 144.5 104.793 144.427 104.876C144.39 104.919 144.344 104.953 144.292 104.976C144.24 104.999 144.184 105.01 144.127 105.008C144.06 105.01 143.994 104.996 143.934 104.967C143.873 104.938 143.821 104.896 143.78 104.843L141.893 102.222L139.895 104.876C139.836 104.936 139.761 104.979 139.679 104.997C139.597 105.015 139.511 105.009 139.432 104.979C139.38 104.958 139.333 104.926 139.295 104.885C139.222 104.802 139.184 104.695 139.187 104.585C139.186 104.471 139.223 104.36 139.292 104.27L141.32 101.57L139.382 98.9248C139.323 98.8477 139.292 98.7522 139.295 98.6548C139.295 98.5448 139.334 98.4378 139.406 98.3548C139.443 98.3118 139.489 98.2776 139.541 98.2548C139.593 98.232 139.649 98.221 139.706 98.2228C139.766 98.2172 139.827 98.2263 139.882 98.2493C139.938 98.2723 139.988 98.3085 140.027 98.3548L141.899 100.949L143.846 98.3548C143.887 98.3108 143.937 98.2762 143.993 98.2535C144.049 98.2307 144.109 98.2202 144.169 98.2228C144.225 98.2195 144.281 98.2288 144.333 98.2501C144.385 98.2714 144.431 98.3041 144.469 98.3458C144.542 98.4283 144.581 98.5357 144.577 98.6458C144.574 98.7535 144.539 98.8578 144.477 98.9458L142.494 101.591L144.438 104.276ZM48.5708 117.789C48.4837 117.874 48.3668 117.921 48.2451 117.921C48.1234 117.921 48.0066 117.874 47.9195 117.789C47.8772 117.747 47.844 117.697 47.8219 117.642C47.7997 117.586 47.7891 117.527 47.7906 117.468V111.573C47.7862 111.482 47.8108 111.392 47.8607 111.316C47.9106 111.24 47.9833 111.182 48.0683 111.15C48.124 111.128 48.1834 111.118 48.2431 111.12H49.9833C50.3869 111.117 50.7845 111.22 51.1351 111.42C51.4688 111.607 51.7445 111.884 51.9273 112.22C52.1201 112.578 52.217 112.979 52.209 113.385C52.2166 113.78 52.1194 114.171 51.9273 114.517C51.7411 114.844 51.4666 115.113 51.1351 115.292C50.7815 115.482 50.3849 115.578 49.9833 115.571H48.7006V117.478C48.7005 117.536 48.6889 117.593 48.6666 117.646C48.6444 117.7 48.6118 117.748 48.5708 117.789ZM50.9683 114.348C51.0949 114.22 51.194 114.068 51.2595 113.901C51.325 113.734 51.3554 113.554 51.3489 113.375C51.3556 113.188 51.3254 113.002 51.2601 112.828C51.1948 112.653 51.0956 112.493 50.9683 112.357C50.8426 112.226 50.691 112.122 50.5231 112.054C50.3551 111.985 50.1747 111.952 49.9933 111.957H48.7066V114.728H49.9993C50.1768 114.732 50.3534 114.701 50.5187 114.636C50.6841 114.571 50.8348 114.474 50.9623 114.35L50.9683 114.348ZM58.3346 117.477C58.3337 117.533 58.3215 117.589 58.2989 117.64C58.2762 117.692 58.2436 117.738 58.2027 117.777C58.1611 117.82 58.1112 117.853 58.056 117.876C58.0009 117.899 57.9417 117.91 57.8821 117.909C57.7936 117.909 57.7071 117.883 57.6333 117.834C57.5565 117.788 57.4974 117.717 57.4655 117.634L56.977 116.415H53.8543L53.3548 117.634C53.3164 117.715 53.2562 117.784 53.181 117.834C53.1095 117.883 53.0248 117.909 52.9382 117.909C52.8787 117.911 52.8194 117.9 52.7645 117.876C52.7097 117.853 52.6605 117.818 52.6206 117.774C52.5384 117.689 52.4932 117.574 52.4947 117.456C52.4962 117.387 52.5105 117.319 52.5366 117.256L54.9811 111.415C55.011 111.326 55.0684 111.249 55.1449 111.195C55.2214 111.141 55.3131 111.113 55.4067 111.115C55.501 111.109 55.5945 111.136 55.6718 111.19C55.7491 111.245 55.8057 111.324 55.8322 111.415L58.2857 117.274C58.3156 117.338 58.3316 117.407 58.3346 117.477ZM56.6723 115.677L55.4276 112.577L54.159 115.677H56.6723ZM63.5981 111.206C63.9538 111.342 64.2854 111.536 64.5791 111.78C64.6374 111.822 64.6847 111.878 64.717 111.942C64.743 112.005 64.7553 112.073 64.7529 112.142C64.756 112.198 64.7463 112.254 64.7245 112.306C64.7027 112.358 64.6694 112.405 64.6271 112.442C64.5455 112.517 64.4382 112.558 64.3274 112.556C64.2172 112.554 64.1113 112.514 64.0277 112.442C63.8249 112.259 63.5938 112.11 63.3434 112.001C63.0612 111.902 62.7632 111.856 62.4643 111.866C62.0227 111.862 61.5894 111.986 61.2166 112.223C60.838 112.463 60.5273 112.797 60.3175 113.193C60.0989 113.605 59.9845 114.065 59.9845 114.532C59.9845 114.999 60.0989 115.459 60.3175 115.872C60.5303 116.266 60.84 116.599 61.2166 116.839C61.5902 117.074 62.0228 117.197 62.4643 117.193C63.0459 117.184 63.608 116.982 64.0626 116.619C64.1444 116.555 64.2439 116.518 64.3473 116.514C64.3987 116.513 64.4497 116.522 64.4972 116.542C64.5451 116.563 64.5881 116.593 64.6231 116.631C64.6979 116.721 64.7363 116.836 64.7308 116.954C64.7252 117.071 64.6761 117.182 64.5931 117.265C63.9862 117.761 63.2226 118.024 62.4393 118.007C61.8415 118.013 61.2537 117.853 60.7411 117.545C60.2359 117.239 59.8219 116.804 59.5423 116.284C59.2441 115.742 59.0913 115.133 59.0988 114.515C59.0918 113.901 59.2447 113.297 59.5423 112.761C59.8241 112.241 60.2376 111.805 60.7411 111.497C61.2534 111.188 61.8412 111.027 62.4393 111.032C62.8329 111.021 63.2255 111.08 63.5981 111.206ZM71.0624 111.24C71.1373 111.322 71.1789 111.429 71.1789 111.54C71.1789 111.651 71.1373 111.758 71.0624 111.84C70.9818 111.917 70.8741 111.959 70.7627 111.957H68.8936V117.47C68.8943 117.529 68.883 117.589 68.8605 117.644C68.838 117.699 68.8047 117.749 68.7626 117.792C68.7204 117.834 68.6702 117.867 68.615 117.89C68.5598 117.912 68.5007 117.923 68.4411 117.923C68.3815 117.923 68.3225 117.912 68.2674 117.889C68.2123 117.867 68.1623 117.833 68.1202 117.791C68.0781 117.749 68.0448 117.699 68.0222 117.644C67.9996 117.589 67.9882 117.529 67.9885 117.47V111.957H66.1105C66.0553 111.959 66.0002 111.949 65.9487 111.929C65.8972 111.909 65.8503 111.879 65.8108 111.84C65.7714 111.801 65.7407 111.754 65.7205 111.702C65.7004 111.651 65.6913 111.595 65.6939 111.54C65.6901 111.456 65.7126 111.374 65.7583 111.304C65.8041 111.234 65.8707 111.18 65.9487 111.15C66.0003 111.13 66.0553 111.121 66.1105 111.123H70.7627C70.874 111.121 70.9817 111.163 71.0624 111.24ZM77.144 117.198C77.1851 117.236 77.2173 117.282 77.2385 117.334C77.2598 117.386 77.2694 117.442 77.2669 117.498C77.2675 117.554 77.257 117.609 77.2359 117.66C77.2147 117.712 77.1835 117.759 77.144 117.798C77.1011 117.838 77.0506 117.869 76.9955 117.889C76.9404 117.909 76.8819 117.918 76.8233 117.915H72.8904C72.8309 117.915 72.7719 117.904 72.7168 117.881C72.6617 117.859 72.6117 117.825 72.5696 117.783C72.5275 117.741 72.4942 117.691 72.4715 117.636C72.449 117.58 72.4375 117.521 72.4379 117.462V111.573C72.4356 111.512 72.4461 111.452 72.4688 111.395C72.4916 111.339 72.526 111.288 72.5698 111.246C72.6122 111.205 72.6624 111.172 72.7175 111.151C72.7725 111.129 72.8313 111.118 72.8904 111.12H76.8204C76.8789 111.117 76.9374 111.126 76.9925 111.146C77.0476 111.166 77.0981 111.197 77.141 111.237C77.1805 111.276 77.2117 111.323 77.2328 111.374C77.254 111.426 77.2645 111.481 77.2639 111.537C77.2662 111.593 77.2564 111.648 77.2352 111.7C77.214 111.752 77.1818 111.799 77.141 111.837C77.0525 111.914 76.9376 111.954 76.8204 111.948H73.341V114.048H75.8384C75.9554 114.044 76.0692 114.086 76.156 114.165C76.2157 114.224 76.2563 114.3 76.2729 114.382C76.2894 114.465 76.2811 114.55 76.249 114.628C76.2264 114.68 76.1936 114.727 76.1524 114.767C76.1112 114.806 76.0625 114.837 76.0092 114.857C75.9546 114.877 75.8966 114.887 75.8384 114.885H73.341V117.098H76.8204C76.9371 117.088 77.0531 117.124 77.144 117.198ZM83.859 111.246C83.9012 111.204 83.9514 111.172 84.0065 111.15C84.0616 111.128 84.1205 111.118 84.1797 111.12C84.2384 111.119 84.2967 111.129 84.3512 111.151C84.4058 111.172 84.4555 111.205 84.4974 111.246C84.5391 111.289 84.5718 111.34 84.5934 111.397C84.615 111.453 84.6252 111.513 84.6232 111.573V117.468C84.6253 117.528 84.6152 117.588 84.5936 117.644C84.5719 117.7 84.5392 117.752 84.4974 117.795C84.4328 117.856 84.3518 117.898 84.2642 117.914C84.1765 117.93 84.0861 117.92 84.0039 117.886C83.9221 117.851 83.8523 117.792 83.803 117.718C83.7537 117.644 83.727 117.557 83.7262 117.468V114.874H79.6964V117.469C79.6975 117.559 79.6717 117.647 79.6224 117.722C79.5731 117.797 79.5025 117.855 79.4196 117.89C79.364 117.913 79.304 117.924 79.2438 117.922C79.1837 117.923 79.124 117.912 79.0683 117.889C79.0127 117.867 78.9622 117.833 78.9202 117.79C78.878 117.748 78.8448 117.698 78.8226 117.643C78.8005 117.587 78.7898 117.528 78.7913 117.469V111.574C78.787 111.483 78.8115 111.393 78.8614 111.317C78.9113 111.241 78.984 111.183 79.069 111.151C79.1247 111.129 79.1841 111.119 79.2438 111.121C79.304 111.118 79.3642 111.127 79.4203 111.149C79.4765 111.171 79.5273 111.205 79.5695 111.248C79.6117 111.291 79.6447 111.342 79.6665 111.398C79.6883 111.454 79.6985 111.514 79.6964 111.574V114.074H83.7312V111.574C83.729 111.513 83.7396 111.453 83.7623 111.396C83.785 111.34 83.8194 111.289 83.863 111.247L83.859 111.246ZM91.8587 111.168C91.9167 111.137 91.9816 111.12 92.0475 111.12C92.1075 111.118 92.1673 111.128 92.2231 111.15C92.279 111.172 92.3297 111.205 92.3721 111.248C92.4146 111.29 92.4478 111.341 92.4698 111.397C92.4918 111.453 92.5021 111.513 92.5 111.573V117.468C92.5027 117.573 92.468 117.676 92.4021 117.758C92.3363 117.84 92.2436 117.896 92.1404 117.916C92.0742 117.929 92.0059 117.927 91.9405 117.91C91.8751 117.894 91.8141 117.863 91.7619 117.82C91.7098 117.778 91.6676 117.724 91.6386 117.663C91.6096 117.602 91.5943 117.535 91.594 117.468V112.541L87.4363 117.766C87.3933 117.814 87.34 117.852 87.2805 117.877C87.2225 117.904 87.1598 117.918 87.096 117.921C87.0322 117.923 86.9686 117.912 86.9088 117.89C86.7952 117.844 86.7038 117.756 86.6541 117.644C86.6312 117.588 86.62 117.529 86.6211 117.469V111.574C86.6204 111.514 86.632 111.454 86.6552 111.399C86.6784 111.344 86.7127 111.294 86.756 111.253C86.821 111.189 86.9032 111.145 86.9926 111.127C87.082 111.109 87.1747 111.117 87.2595 111.151C87.3144 111.172 87.364 111.206 87.4048 111.248C87.4457 111.291 87.4769 111.342 87.4962 111.398C87.5166 111.454 87.5257 111.514 87.5232 111.574V116.502L91.6989 111.277C91.745 111.231 91.7992 111.194 91.8587 111.168ZM99.7345 111.168C99.7934 111.136 99.8594 111.12 99.9263 111.12C99.9865 111.117 100.047 111.126 100.103 111.148C100.159 111.17 100.21 111.204 100.252 111.247C100.294 111.289 100.327 111.34 100.349 111.397C100.37 111.453 100.38 111.513 100.377 111.573V117.468C100.379 117.557 100.354 117.646 100.305 117.721C100.256 117.796 100.186 117.854 100.103 117.889C100.047 117.912 99.9875 117.923 99.9273 117.921C99.8675 117.922 99.8081 117.911 99.7527 117.889C99.6972 117.866 99.6468 117.833 99.6046 117.791C99.5623 117.749 99.529 117.698 99.5067 117.643C99.4844 117.587 99.4735 117.528 99.4748 117.468V112.541L95.3171 117.766C95.273 117.814 95.2187 117.852 95.1583 117.877C95.1021 117.904 95.0409 117.919 94.9786 117.922C94.9163 117.925 94.854 117.916 94.7955 117.894C94.737 117.872 94.6835 117.839 94.6383 117.796C94.5929 117.753 94.5568 117.701 94.5319 117.644C94.509 117.588 94.4978 117.529 94.4989 117.469V111.574C94.4968 111.482 94.5237 111.392 94.5757 111.316C94.6277 111.241 94.7022 111.184 94.7886 111.153C94.846 111.13 94.9076 111.119 94.9695 111.121C95.0254 111.121 95.0803 111.132 95.1323 111.153C95.2136 111.188 95.2822 111.247 95.3287 111.322C95.3752 111.398 95.3973 111.485 95.392 111.574V116.502L99.5826 111.286C99.6251 111.237 99.6767 111.197 99.7345 111.168ZM96.5378 109.021C96.6138 109.102 96.6547 109.21 96.6517 109.321C96.6525 109.398 96.6741 109.473 96.7142 109.538C96.7544 109.604 96.8115 109.657 96.8795 109.693C97.0483 109.798 97.2451 109.85 97.4439 109.843C97.6437 109.85 97.8405 109.797 98.0113 109.693C98.078 109.656 98.1338 109.602 98.1733 109.537C98.2127 109.472 98.2344 109.397 98.236 109.321C98.2331 109.21 98.274 109.102 98.3499 109.021C98.3857 108.983 98.4284 108.953 98.4758 108.932C98.5727 108.892 98.6815 108.892 98.7785 108.932C98.8254 108.953 98.8684 108.983 98.9044 109.021C98.9793 109.103 99.0201 109.21 99.0182 109.321C99.0205 109.538 98.9501 109.749 98.8184 109.921C98.6702 110.11 98.4743 110.256 98.251 110.344C97.7336 110.544 97.1612 110.544 96.6437 110.344C96.4209 110.255 96.2253 110.109 96.0763 109.921C95.9446 109.749 95.8743 109.538 95.8765 109.321C95.8747 109.21 95.9154 109.103 95.9904 109.021C96.0263 108.983 96.0693 108.953 96.117 108.932C96.1647 108.911 96.2161 108.9 96.2681 108.9C96.3201 108.9 96.3715 108.911 96.4192 108.932C96.4669 108.953 96.5099 108.983 96.5458 109.021H96.5378ZM71.5998 58.1108H10.5434C8.55346 58.1108 7.62543 57.0988 7.92112 55.2518C7.92486 54.963 7.98904 54.6781 8.10951 54.4157C8.22998 54.1532 8.40408 53.9189 8.62056 53.7279C8.83705 53.5369 9.09112 53.3935 9.36639 53.3068C9.64165 53.2202 9.93201 53.1922 10.2187 53.2248C14.1576 53.2758 18.0995 53.1978 22.0364 53.2638C23.3181 53.2878 23.6987 52.9128 23.7946 51.5818C23.9412 50.3981 23.7683 49.1967 23.294 48.1025C22.8196 47.0082 22.0612 46.0612 21.0974 45.3598C13.774 39.1648 12.4164 30.8768 16.9078 22.4118C18.5177 19.5283 20.4713 16.8511 22.7257 14.4388C22.8487 14.2473 23.0165 14.0888 23.2145 13.9769C23.4125 13.865 23.6348 13.8031 23.8621 13.7966C24.0894 13.7901 24.3149 13.8391 24.519 13.9396C24.723 14.04 24.8996 14.1887 25.0333 14.3728C29.0351 18.6038 32.2728 23.2998 33.5244 29.1258C34.7761 34.9518 32.8182 39.8488 28.9662 44.1398C28.5157 44.7398 27.9802 45.2698 27.3769 45.7158C24.4799 47.4008 25.5568 50.1538 25.5148 52.5688C25.4998 53.5358 26.4838 53.2208 27.0622 53.2238C33.0479 53.2478 39.0337 53.2388 45.0195 53.2388C45.3192 53.2218 45.6189 53.2218 45.9185 53.2388C46.9874 53.3528 47.3071 52.8458 47.2771 51.8308C47.2157 49.8803 47.2157 47.9283 47.2771 45.9778C47.3086 45.5099 47.2097 45.0424 46.9916 44.6273C46.7734 44.2122 46.4445 43.8659 46.0414 43.6268C42.0752 40.8823 38.8984 37.1433 36.829 32.7838C33.9021 26.4778 34.3056 20.1718 37.0088 13.8928C39.2775 8.97981 42.3666 4.49011 46.1433 0.616813C46.2774 0.432489 46.4518 0.281206 46.6531 0.174465C46.8544 0.0677242 47.0774 0.00833609 47.3051 0.000815918C47.5327 -0.00670426 47.7591 0.0378414 47.967 0.131066C48.1749 0.224291 48.3589 0.363741 48.5048 0.538813C54.6824 6.90481 59.5284 14.0248 60.4424 23.1588C61.1257 29.9388 58.1748 35.3958 53.7963 40.2328C52.9597 41.2273 52.0163 42.1267 50.9833 42.9148C50.3991 43.2895 49.9358 43.8253 49.649 44.4577C49.3622 45.0901 49.2642 45.792 49.3669 46.4788C49.4868 48.2788 49.4299 50.0788 49.3909 51.8838C49.3729 52.7998 49.6127 53.2528 50.6386 53.2468C57.2228 53.2168 63.8079 53.2168 70.392 53.2468C71.2751 53.2468 71.7147 52.9468 71.6338 52.0308C71.6294 51.9809 71.6294 51.9307 71.6338 51.8808C71.8521 50.6306 71.7113 49.344 71.2276 48.1707C70.7439 46.9975 69.9373 45.986 68.9016 45.2538C61.778 39.2898 60.3985 31.1198 64.6061 22.8168C66.2376 19.7736 68.2612 16.9578 70.6248 14.4418C70.7363 14.2572 70.8902 14.1019 71.0737 13.9887C71.2571 13.8755 71.4649 13.8078 71.6798 13.791C71.8946 13.7743 72.1104 13.8091 72.3091 13.8926C72.5079 13.976 72.6839 14.1057 72.8225 14.2708C77.4377 19.1508 81.1309 24.5348 81.7472 31.4978C82.1868 36.4978 80.049 40.5278 76.8803 44.1398C76.6206 44.5078 76.3009 44.8298 75.9373 45.0948C73.0403 46.6948 73.2081 49.3948 73.34 52.1158C73.3789 52.9628 73.7136 53.2448 74.5387 53.2448C81.021 53.2308 87.5062 53.2308 93.9925 53.2448C94.9145 53.2448 95.2671 52.8668 95.1912 51.9868V51.6868C95.1912 49.5368 95.5119 47.3088 95.0653 45.2518C94.5898 43.0518 92.0685 42.4048 90.576 40.9008C86.4004 36.6398 83.3925 31.8198 82.8271 25.7338C82.2707 19.8338 84.1857 14.5928 87.1156 9.63381C89.0869 6.44157 91.3751 3.45676 93.9455 0.724813C94.1414 0.420941 94.4372 0.195093 94.7817 0.0862748C95.1262 -0.022543 95.4979 -0.00749743 95.8326 0.128813C96.0553 0.218813 96.2531 0.358813 96.4119 0.538813C102.593 6.89881 107.438 14.0218 108.354 23.1558C109.036 29.9358 106.088 35.3958 101.709 40.2298C100.822 41.248 99.8415 42.1802 98.7795 43.0138C98.259 43.3475 97.8426 43.8209 97.5777 44.3799C97.3128 44.9389 97.21 45.5612 97.281 46.1758C97.4009 48.0708 97.347 49.9758 97.308 51.8808C97.29 52.7808 97.5238 53.2528 98.5557 53.2468C105.14 53.2168 111.725 53.2168 118.309 53.2468C119.208 53.2468 119.623 52.9288 119.557 52.0218C119.54 51.8718 119.54 51.7218 119.557 51.5718C119.928 48.9598 119.048 47.1668 116.914 45.3588C109.596 39.1638 108.234 30.8698 112.724 22.4078C114.335 19.525 116.288 16.8479 118.542 14.4348C118.655 14.2517 118.81 14.0983 118.995 13.987C119.179 13.8758 119.387 13.81 119.602 13.795C119.816 13.7801 120.031 13.8164 120.229 13.9011C120.427 13.9857 120.602 14.1162 120.74 14.2818C125.289 19.0818 128.922 24.3928 129.63 31.2148C130.166 36.3148 128.038 40.4608 124.772 44.1508C124.451 44.5972 124.061 44.9904 123.618 45.3158C120.712 46.9348 121.187 49.6608 121.256 52.2798C121.28 53.2588 121.911 53.2408 122.585 53.2408H132.908C135.006 53.2408 136.024 54.7568 135.323 56.7538C135.23 57.147 135.004 57.4957 134.683 57.7409C134.362 57.986 133.967 58.1125 133.563 58.0988H131.917L71.5998 58.1108Z" fill="#69A978"/>
</svg>
